{"title":"Big.Brother.UK.S15E05.1080i.HDTV.x264-LEE","uid":10332684,"size":3090163770,"categoryP":"video","categoryS":"hd___tv_shows","magnet":"?xt=urn:btih:b2316cdb54f34cc2bb0073a81d505a6d515aa228&amp;dn=Big.Brother.UK.S15E05.1080i.HDTV.x264-LEE&amp;tr=udp%3A%2F%2Ftracker.openbittorrent.com%3A80&amp;tr=udp%3A%2F%2Fopen.demonii.com%3A1337&amp;tr=udp%3A%2F%2Ftracker.coppersurfer.tk%3A6969&amp;tr=udp%3A%2F%2Fexodus.desync.com%3A6969","seeders":1,"leechers":2,"uploader":"W33DandSHANE","files":1,"time":1402430075,"description":"Marcus Bentley narrates a round-up of the highlights of the latest events, which includes the housemates nominating for the first time. Power Housemate Pauline is exempt and so is Helen, who never has to worry about eviction having been been granted a pass to the final. For the others, however, the backstabbing begins\n\n\nComplete name : Big.Brother.UK.S15E05.1080i.HDTV.x264-LEE.mkv\nFormat : Matroska\nFormat version : Version 4 / Version 2\nFile size : 2.88 GiB\nDuration : 45mn 27s\nOverall bit rate : 9 064 Kbps\n\n\nVideo\nID : 1\nFormat : AVC\nFormat/Info : Advanced Video Codec\nFormat profile : &lt;a class=&quot;__cf_email__&quot; href=&quot;/cdn-cgi/l/email-protection&quot; data-cfemail=&quot;2e634f47406e621a001e&quot;&gt;[email&amp;#160;protected]&lt;/a&gt;&lt;script cf-hash='f9e31' type=&quot;text/javascript&quot;&gt;\n/* &lt;![CDATA[ */!function(){try{var t=&quot;currentScript&quot;in document?document.currentScript:function(){for(var t=document.getElementsByTagName(&quot;script&quot;),e=t.length;e--;)if(t[e].getAttribute(&quot;cf-hash&quot;))return t[e]}();if(t&amp;&amp;t.previousSibling){var e,r,n,i,c=t.previousSibling,a=c.getAttribute(&quot;data-cfemail&quot;);if(a){for(e=&quot;&quot;,r=parseInt(a.substr(0,2),16),n=2;a.length-n;n+=2)i=parseInt(a.substr(n,2),16)^r,e+=String.fromCharCode(i);e=document.createTextNode(e),c.parentNode.replaceChild(e,c)}}}catch(u){}}();/* ]]&gt; */&lt;/script&gt;\nFormat settings, CABAC : Yes\nFormat settings, ReFrames : 4 frames\nFormat settings, GOP : M=4, N=12\nCodec ID : V_MPEG4/ISO/AVC\nDuration : 45mn 27s\nBit rate : 8 499 Kbps\nWidth : 1 920 pixels\nHeight : 1 080 pixels\nDisplay aspect ratio : 16:9\nFrame rate mode : Constant\nFrame rate : 25.000 fps\nColor space : YUV\nChroma subsampling : 4:2:0\nBit depth : 8 bits\nScan type : Interlaced\nScan order : Top Field First\nBits/(Pixel*Frame) : 0.164\nStream size : 2.70 GiB (94%)\nDefault : Yes\nForced : No\nColor primaries : BT.709\nTransfer characteristics : BT.709\nMatrix coefficients : BT.709\n\nAudio\nID : 2\nFormat : AC-3\nFormat/Info : Audio Coding 3\nMode extension : CM (complete main)\nFormat settings, Endianness : Big\nCodec ID : A_AC3\nDuration : 45mn 27s\nBit rate mode : Constant\nBit rate : 384 Kbps\nChannel(s) : 6 channels\nChannel positions : Front: L C R, Side: L R, LFE\nSampling rate : 48.0 KHz\nBit depth : 16 bits\nCompression mode : Lossy\nStream size : 125 MiB (4%)\nLanguage : English\nDefault : Yes\nForced : No\n","torrent":{"xt":"urn:btih:b2316cdb54f34cc2bb0073a81d505a6d515aa228","amp;dn":"Big.Brother.UK.S15E05.1080i.HDTV.x264-LEE","amp;tr":["udp%3A%2F%2Ftracker.openbittorrent.com%3A80","udp%3A%2F%2Fopen.demonii.com%3A1337","udp%3A%2F%2Ftracker.coppersurfer.tk%3A6969","udp%3A%2F%2Fexodus.desync.com%3A6969"],"infoHash":"b2316cdb54f34cc2bb0073a81d505a6d515aa228","infoHashBuffer":{"type":"Buffer","data":[178,49,108,219,84,243,76,194,187,0,115,168,29,80,90,109,81,90,162,40]},"announce":[],"urlList":[]}}